<svg version="1.2" xmlns="http://www.w3.org/2000/svg" viewBox="0 0 256 256" width="256" height="256"><style>.a{fill:none;stroke:#f0f0f0;stroke-linecap:round;stroke-width:18}.b{fill:#f0f0f0}</style><path class="a" d="m128 192c-35.4 0-64-28.6-64-64 0-35.4 28.6-64 64-64 35.4 0 64 28.6 64 64 0 35.4-28.6 64-64 64z"/><path class="b" d="m120 24c0-4.4 3.6-8 8-8 4.4 0 8 3.6 8 8v16c0 4.4-3.6 8-8 8-4.4 0-8-3.6-8-8z"/><path class="b" d="m120 216c0-4.4 3.6-8 8-8 4.4 0 8 3.6 8 8v16c0 4.4-3.6 8-8 8-4.4 0-8-3.6-8-8z"/><path class="b" d="m232 120c4.4 0 8 3.6 8 8 0 4.4-3.6 8-8 8h-16c-4.4 0-8-3.6-8-8 0-4.4 3.6-8 8-8z"/><path class="b" d="m40 120c4.4 0 8 3.6 8 8 0 4.4-3.6 8-8 8h-16c-4.4 0-8-3.6-8-8 0-4.4 3.6-8 8-8z"/><path class="b" d="m195.9 48.8c3.1-3.1 8.2-3.1 11.3 0 3.1 3.1 3.1 8.2 0 11.3l-11.3 11.3c-3.1 3.2-8.2 3.2-11.3 0-3.2-3.1-3.2-8.2 0-11.3z"/><path class="b" d="m60.1 184.6c3.1-3.2 8.2-3.2 11.3 0 3.2 3.1 3.2 8.2 0 11.3l-11.3 11.3c-3.1 3.1-8.2 3.1-11.3 0-3.1-3.1-3.1-8.2 0-11.3z"/><path class="b" d="m207.2 195.9c3.1 3.1 3.1 8.2 0 11.3-3.1 3.1-8.2 3.1-11.3 0l-11.3-11.3c-3.2-3.1-3.2-8.2 0-11.3 3.1-3.2 8.2-3.2 11.3 0z"/><path class="b" d="m71.4 60.1c3.2 3.1 3.2 8.2 0 11.3-3.1 3.2-8.2 3.2-11.3 0l-11.3-11.3c-3.1-3.1-3.1-8.2 0-11.3 3.1-3.1 8.2-3.1 11.3 0z"/></svg>